<?xml version="1.0" encoding="UTF-8" standalone="no"?>
<!DOCTYPE svg PUBLIC "-//W3C//DTD SVG 1.1//EN" "http://www.w3.org/Graphics/SVG/1.1/DTD/svg11.dtd">
<svg xmlns="http://www.w3.org/2000/svg" version="1.1" viewBox="0.00 0.00 1024.00 1024.00">
<g stroke-width="2.00" fill="none" stroke-linecap="butt">
<path stroke="#768a97" vector-effect="non-scaling-stroke" d="
  M 351.04 248.29
  Q 345.02 251.14 339.23 254.49
  C 297.52 278.70 263.57 310.84 235.88 350.09
  Q 190.84 413.94 180.82 491.73
  C 176.79 523.03 178.00 554.56 183.40 586.30
  C 198.65 675.94 248.36 752.63 323.48 803.25
  C 377.36 839.56 439.33 860.85 504.49 863.20
  C 526.42 863.99 548.09 862.02 570.00 858.02
  C 599.72 852.60 628.60 843.85 655.52 830.99
  C 748.04 786.78 816.17 705.17 838.54 604.55
  C 847.04 566.29 849.90 527.56 844.72 489.50
  C 835.69 423.14 804.79 361.55 758.90 312.09
  Q 729.76 280.69 692.19 258.40
  Q 683.20 253.08 674.43 248.06
  A 2.29 2.29 0.0 0 1 673.29 246.35
  Q 669.74 218.15 656.11 193.40
  Q 649.74 181.84 644.15 174.35
  C 615.73 136.32 569.88 112.20 522.26 109.68
  C 463.37 106.55 407.67 133.19 375.36 182.87
  C 364.03 200.31 355.93 219.04 352.96 239.03
  Q 352.32 243.30 351.59 247.58
  Q 351.50 248.08 351.04 248.29"
/>
<path stroke="#768a97" vector-effect="non-scaling-stroke" d="
  M 267.7006 267.5345
  A 11.61 11.33 93.8 0 0 279.7751 256.7009
  A 11.61 11.33 93.8 0 0 269.2394 244.3655
  A 11.61 11.33 93.8 0 0 257.1649 255.1991
  A 11.61 11.33 93.8 0 0 267.7006 267.5345"
/>
<path stroke="#768a97" vector-effect="non-scaling-stroke" d="
  M 753.8163 267.1945
  A 11.53 11.26 103.0 0 0 767.3814 258.4929
  A 11.53 11.26 103.0 0 0 759.0037 244.7255
  A 11.53 11.26 103.0 0 0 745.4386 253.4271
  A 11.53 11.26 103.0 0 0 753.8163 267.1945"
/>
<path stroke="#768a97" vector-effect="non-scaling-stroke" d="
  M 193.99 352.64
  A 9.23 9.23 0.0 0 0 184.76 343.41
  A 9.23 9.23 0.0 0 0 175.53 352.64
  A 9.23 9.23 0.0 0 0 184.76 361.87
  A 9.23 9.23 0.0 0 0 193.99 352.64"
/>
<path stroke="#768a97" vector-effect="non-scaling-stroke" d="
  M 840.7160 361.8806
  A 9.24 9.01 83.5 0 0 848.6221 351.6800
  A 9.24 9.01 83.5 0 0 838.6240 343.5194
  A 9.24 9.01 83.5 0 0 830.7179 353.7200
  A 9.24 9.01 83.5 0 0 840.7160 361.8806"
/>
<path stroke="#768a97" vector-effect="non-scaling-stroke" d="
  M 191.99 724.12
  A 8.32 8.32 0.0 0 0 183.67 715.80
  A 8.32 8.32 0.0 0 0 175.35 724.12
  A 8.32 8.32 0.0 0 0 183.67 732.44
  A 8.32 8.32 0.0 0 0 191.99 724.12"
/>
<path stroke="#768a97" vector-effect="non-scaling-stroke" d="
  M 848.64 724.18
  A 8.32 8.32 0.0 0 0 840.32 715.86
  A 8.32 8.32 0.0 0 0 832.00 724.18
  A 8.32 8.32 0.0 0 0 840.32 732.50
  A 8.32 8.32 0.0 0 0 848.64 724.18"
/>
<path stroke="#768a97" vector-effect="non-scaling-stroke" d="
  M 754.5172 827.8694
  A 11.47 11.20 99.6 0 0 767.4732 818.4278
  A 11.47 11.20 99.6 0 0 758.3428 805.2506
  A 11.47 11.20 99.6 0 0 745.3868 814.6922
  A 11.47 11.20 99.6 0 0 754.5172 827.8694"
/>
<path stroke="#768a97" vector-effect="non-scaling-stroke" d="
  M 266.6904 828.0192
  A 11.44 11.24 99.0 0 0 279.5816 818.4783
  A 11.44 11.24 99.0 0 0 270.2696 805.4208
  A 11.44 11.24 99.0 0 0 257.3784 814.9617
  A 11.44 11.24 99.0 0 0 266.6904 828.0192"
/>
<path stroke="#768a97" vector-effect="non-scaling-stroke" d="
  M 522.97 925.22
  A 10.25 10.25 0.0 0 0 512.72 914.97
  A 10.25 10.25 0.0 0 0 502.47 925.22
  A 10.25 10.25 0.0 0 0 512.72 935.47
  A 10.25 10.25 0.0 0 0 522.97 925.22"
/>
<path stroke="#768a97" vector-effect="non-scaling-stroke" d="
  M 634.74 317.75
  C 659.85 272.11 648.86 214.76 613.71 177.79
  C 569.20 130.98 499.89 121.03 443.54 152.07
  C 386.80 183.34 359.28 255.52 389.07 314.73
  Q 402.05 340.51 420.23 372.52
  C 428.51 387.10 436.37 401.94 445.14 416.26
  Q 445.93 417.54 447.43 417.54
  L 578.04 417.48
  A 2.64 2.63 14.4 0 0 580.35 416.12
  Q 608.09 366.20 634.74 317.75"
/>
<path stroke="#2b6b86" vector-effect="non-scaling-stroke" d="
  M 729.39 555.62
  C 730.63 571.93 728.23 586.63 722.38 601.66
  A 0.81 0.81 0.0 0 0 723.04 602.75
  Q 726.09 603.10 729.14 603.10
  C 732.32 603.09 735.28 601.99 738.19 600.86
  A 0.16 0.16 0.0 0 1 738.34 601.15
  Q 727.92 607.81 717.67 615.21
  Q 714.98 617.15 712.96 619.89
  C 705.22 630.37 697.81 639.61 687.47 648.05"
/>
<path stroke="#768a97" vector-effect="non-scaling-stroke" d="
  M 687.47 648.05
  Q 680.28 646.17 678.25 645.76
  C 665.53 643.19 651.28 643.18 638.74 646.73
  C 620.11 651.99 604.51 663.79 589.29 675.17
  A 0.98 0.97 42.2 0 1 588.19 675.22
  Q 572.20 665.53 556.08 656.25
  Q 545.15 649.96 540.71 648.29
  C 516.94 639.35 491.15 643.11 471.24 659.60
  Q 470.49 660.23 471.36 660.66
  L 484.94 667.47"
/>
<path stroke="#2b6b86" vector-effect="non-scaling-stroke" d="
  M 484.94 667.47
  C 496.23 672.26 504.99 672.89 515.91 673.73
  C 529.21 674.75 539.33 681.03 550.14 689.15
  Q 550.43 689.36 550.15 689.60
  Q 550.03 689.69 549.88 689.80"
/>
<path stroke="#768a97" vector-effect="non-scaling-stroke" d="
  M 549.88 689.80
  Q 548.13 689.14 547.38 689.08
  Q 532.40 687.86 517.49 689.15
  Q 502.58 690.45 499.98 690.39
  C 483.23 690.05 467.55 684.58 452.97 676.58
  C 439.21 669.03 425.76 661.13 411.77 653.99
  C 389.13 642.42 364.54 640.97 340.24 648.74"
/>
<path stroke="#2b6b86" vector-effect="non-scaling-stroke" d="
  M 340.24 648.74
  Q 329.02 640.75 322.81 633.19
  Q 317.72 627.01 312.72 620.75
  C 312.26 620.17 311.89 619.22 311.30 618.65
  Q 310.99 618.35 310.89 617.94
  Q 310.67 617.11 309.65 615.50
  C 307.29 611.78 304.97 608.19 303.34 604.15
  Q 293.88 580.67 295.93 555.30"
/>
<path stroke="#768a97" vector-effect="non-scaling-stroke" d="
  M 295.93 555.30
  Q 297.59 543.88 300.28 535.50
  C 309.10 508.05 331.51 484.24 360.49 478.02
  Q 363.94 477.28 372.40 476.23
  Q 372.91 476.17 373.08 475.69
  Q 374.63 471.44 376.38 467.30
  Q 388.39 438.82 415.81 424.77
  Q 416.18 424.58 416.98 424.05
  Q 417.59 423.64 418.10 423.61
  Q 419.50 423.50 418.82 422.27
  C 404.04 395.59 389.27 368.90 374.60 342.16
  C 363.52 321.98 355.44 304.29 352.47 282.52
  Q 352.38 281.92 351.86 282.24
  C 295.62 316.74 251.45 369.62 227.65 430.61
  C 210.22 475.29 205.79 524.74 213.00 571.99
  Q 213.07 572.48 213.36 572.77"
/>
<path stroke="#2b6b86" vector-effect="non-scaling-stroke" d="
  M 213.36 572.77
  Q 213.27 573.94 213.42 574.99
  Q 215.23 587.62 217.87 599.98"
/>
<path stroke="#768a97" vector-effect="non-scaling-stroke" d="
  M 217.87 599.98
  L 222.48 616.24"
/>
<path stroke="#2b6b86" vector-effect="non-scaling-stroke" d="
  M 222.48 616.24
  Q 222.84 618.07 223.75 618.75
  Q 232.32 625.16 242.37 631.36"
/>
<path stroke="#768a97" vector-effect="non-scaling-stroke" d="
  M 242.37 631.36
  L 315.43 678.16"
/>
<path stroke="#2b6b86" vector-effect="non-scaling-stroke" d="
  M 315.43 678.16
  L 330.82 687.94
  A 1.28 1.27 39.3 0 0 332.39 687.79
  C 350.39 670.60 378.72 669.66 399.74 681.50
  Q 405.79 684.91 411.77 688.44
  Q 414.55 690.08 415.33 691.53"
/>
<path stroke="#768a97" vector-effect="non-scaling-stroke" d="
  M 415.33 691.53
  C 406.48 693.71 394.23 698.96 385.40 693.59
  Q 381.40 691.16 377.24 689.08
  C 362.52 681.71 346.63 682.72 331.96 689.62"
/>
<path stroke="#2b6b86" vector-effect="non-scaling-stroke" d="
  M 331.96 689.62
  Q 322.56 694.60 314.11 701.34"
/>
<path stroke="#768a97" vector-effect="non-scaling-stroke" d="
  M 314.11 701.34
  Q 311.25 699.79 308.17 697.88
  Q 304.35 695.51 302.27 694.32
  C 278.13 680.54 259.93 668.98 238.75 656.38
  Q 237.51 655.64 238.03 656.98
  Q 242.95 669.56 250.27 680.46"
/>
<path stroke="#2b6b86" vector-effect="non-scaling-stroke" d="
  M 250.27 680.46
  Q 258.72 696.24 269.56 709.20
  C 270.63 710.48 271.68 712.43 272.89 713.87
  C 278.35 720.39 283.93 727.48 289.48 733.30
  Q 310.45 755.32 335.36 772.91
  Q 335.70 773.15 336.47 773.26"
/>
<path stroke="#768a97" vector-effect="non-scaling-stroke" d="
  M 336.47 773.26
  L 350.29 782.73"
/>
<path stroke="#2b6b86" vector-effect="non-scaling-stroke" d="
  M 350.29 782.73
  Q 362.19 790.18 365.50 792.00
  Q 372.33 795.76 388.07 803.32"
/>
<path stroke="#768a97" vector-effect="non-scaling-stroke" d="
  M 388.07 803.32
  L 404.07 811.10
  A 0.98 0.98 0.0 0 0 405.43 810.51
  Q 405.76 809.46 406.66 808.16
  C 422.02 786.13 446.70 774.17 473.26 772.57
  Q 475.20 772.46 493.26 772.45
  Q 531.13 772.43 568.99 772.32
  Q 582.96 772.28 587.25 772.58
  C 608.22 774.00 630.68 784.15 644.82 800.52
  Q 645.16 800.91 645.61 800.67
  L 661.62 792.15"
/>
<path stroke="#2b6b86" vector-effect="non-scaling-stroke" d="
  M 661.62 792.15
  Q 676.49 783.62 682.36 779.35
  Q 691.97 772.38 701.40 765.15
  Q 729.23 743.82 750.89 716.24
  C 751.76 715.13 752.33 713.61 753.51 712.39
  Q 758.07 707.69 761.87 702.35
  Q 770.41 690.36 778.02 676.95"
/>
<path stroke="#768a97" vector-effect="non-scaling-stroke" d="
  M 778.02 676.95
  L 787.23 657.67
  Q 787.90 656.28 786.60 657.11
  L 717.27 701.45"
/>
<path stroke="#2b6b86" vector-effect="non-scaling-stroke" d="
  M 717.27 701.45
  L 699.30 689.69
  Q 698.22 688.98 699.29 688.26
  L 715.53 677.34"
/>
<path stroke="#768a97" vector-effect="non-scaling-stroke" d="
  M 715.53 677.34
  L 780.80 633.50"
/>
<path stroke="#2b6b86" vector-effect="non-scaling-stroke" d="
  M 780.80 633.50
  Q 793.18 626.20 804.11 616.14"
/>
<path stroke="#768a97" vector-effect="non-scaling-stroke" d="
  M 804.11 616.14
  Q 804.89 608.79 807.53 600.46"
/>
<path stroke="#2b6b86" vector-effect="non-scaling-stroke" d="
  M 807.53 600.46
  L 812.22 572.29"
/>
<path stroke="#768a97" vector-effect="non-scaling-stroke" d="
  M 812.22 572.29
  C 831.21 459.57 776.24 352.53 684.78 289.22
  C 681.06 286.64 677.01 284.34 673.03 282.10
  Q 672.60 281.86 672.54 282.34
  Q 669.34 306.96 657.66 328.86
  C 640.89 360.28 623.25 391.27 605.83 422.38
  A 0.75 0.75 0.0 0 0 606.17 423.43
  C 629.51 433.92 643.76 451.67 652.35 475.65
  A 0.79 0.77 82.3 0 0 653.02 476.17
  C 688.09 479.39 715.39 502.17 725.48 535.74
  Q 728.23 544.89 729.39 555.62"
/>
<path stroke="#92cfe4" vector-effect="non-scaling-stroke" d="
  M 812.22 572.29
  C 790.74 574.76 765.78 572.23 745.85 562.90
  Q 734.77 557.71 729.39 555.62"
/>
<path stroke="#92cfe4" vector-effect="non-scaling-stroke" d="
  M 807.53 600.46
  Q 791.71 599.88 776.76 602.60
  C 753.09 606.91 734.69 618.97 718.52 636.73
  Q 718.02 637.27 717.88 637.68
  A 0.54 0.54 0.0 0 0 718.54 638.38
  C 726.49 636.16 734.64 634.65 742.28 631.65
  Q 744.24 630.88 751.05 627.39
  Q 775.36 614.93 804.11 616.14"
/>
<path stroke="#92cfe4" vector-effect="non-scaling-stroke" d="
  M 780.80 633.50
  Q 773.84 633.75 768.98 635.41
  Q 761.78 637.86 753.40 642.90
  Q 741.46 650.08 729.14 656.61
  C 723.35 659.68 717.40 661.37 712.31 658.73
  Q 700.54 652.65 687.47 648.05"
/>
<path stroke="#92cfe4" vector-effect="non-scaling-stroke" d="
  M 715.53 677.34
  Q 705.99 671.66 696.01 667.20
  C 677.28 658.82 655.27 656.99 635.85 664.15
  C 624.03 668.51 613.41 675.28 603.28 682.71
  A 0.44 0.43 39.9 0 0 603.35 683.45
  L 616.85 690.15"
/>
<path stroke="#768a97" vector-effect="non-scaling-stroke" d="
  M 616.85 690.15
  C 624.65 693.70 637.87 698.44 645.69 693.69
  C 657.73 686.36 668.28 682.15 682.75 684.78
  Q 685.66 685.31 696.65 688.27"
/>
<path stroke="#92cfe4" vector-effect="non-scaling-stroke" d="
  M 696.65 688.27
  Q 697.55 688.00 697.80 688.69
  A 0.77 0.77 0.0 0 1 697.61 689.52
  C 684.24 702.45 666.79 707.17 648.57 709.70
  Q 638.08 711.17 629.91 710.02
  C 619.62 708.58 609.99 704.82 600.86 699.86
  Q 577.28 687.03 554.36 673.06
  C 532.99 660.04 512.57 653.77 488.58 665.06
  Q 486.67 665.96 484.94 667.47"
/>
<path stroke="#2b6b86" vector-effect="non-scaling-stroke" d="
  M 696.65 688.27
  Q 697.16 687.48 696.58 687.45
  C 678.53 671.83 653.36 669.48 632.56 680.56
  C 627.72 683.14 621.86 686.62 616.85 690.15"
/>
<path stroke="#92cfe4" vector-effect="non-scaling-stroke" d="
  M 331.96 689.62
  C 332.92 690.25 334.05 690.67 334.91 691.27
  Q 343.13 696.98 346.48 698.77
  Q 373.21 713.02 403.24 707.48
  C 414.74 705.35 426.83 702.43 438.06 705.64
  A 0.51 0.50 -71.1 0 0 438.67 705.33
  L 438.78 705.06
  Q 438.84 704.88 438.67 704.80
  Q 429.06 700.32 420.44 694.05
  Q 418.90 692.93 415.33 691.53"
/>
<path stroke="#92cfe4" vector-effect="non-scaling-stroke" d="
  M 778.02 676.95
  Q 771.33 682.41 760.43 689.66
  C 734.92 706.64 718.38 717.54 700.98 727.48
  C 679.26 739.88 653.85 741.97 629.41 739.92
  C 619.11 739.05 608.70 736.26 598.79 735.41
  Q 571.54 733.10 544.59 738.16
  C 540.95 738.84 537.05 739.22 533.32 739.23
  Q 518.03 739.28 502.75 739.11
  Q 496.84 739.04 485.50 737.09
  Q 459.36 732.59 429.99 735.02
  Q 405.81 737.01 386.48 748.65
  C 373.76 756.31 363.07 767.43 353.16 779.36
  C 352.39 780.29 351.56 782.16 350.29 782.73"
/>
<path stroke="#92cfe4" vector-effect="non-scaling-stroke" d="
  M 336.47 773.26
  C 336.83 772.66 336.96 771.92 337.36 771.38
  C 342.83 763.95 349.28 757.76 355.99 751.49
  Q 381.80 727.34 416.75 721.17
  C 432.07 718.47 447.77 717.94 463.28 718.54
  C 483.29 719.30 502.50 724.42 522.66 723.61
  C 530.65 723.30 540.20 721.84 548.93 720.74
  Q 560.17 719.32 568.66 718.94
  Q 584.92 718.20 594.76 719.04
  Q 607.23 720.11 624.24 723.78
  Q 636.08 726.34 649.50 726.33
  C 664.80 726.33 678.71 722.96 691.92 715.92
  Q 703.65 709.66 717.27 701.45"
/>
<path stroke="#92cfe4" vector-effect="non-scaling-stroke" d="
  M 314.11 701.34
  L 373.90 734.63
  Q 374.99 735.24 373.75 735.34
  C 372.02 735.47 369.14 734.10 367.26 733.65
  Q 349.13 729.24 331.13 724.35
  C 325.98 722.96 320.03 720.64 316.00 718.72
  Q 307.81 714.82 290.83 704.82
  Q 286.92 702.51 273.76 694.41
  Q 262.32 687.36 250.27 680.46"
/>
<path stroke="#92cfe4" vector-effect="non-scaling-stroke" d="
  M 549.88 689.80
  L 573.01 704.52
  Q 576.26 706.59 572.48 705.84
  C 571.85 705.72 570.90 705.07 569.80 705.04
  Q 547.65 704.50 525.50 704.05
  Q 520.99 703.96 511.75 705.23
  C 488.93 708.38 468.07 702.29 447.91 691.33
  Q 431.13 682.21 414.53 672.78
  Q 405.69 667.76 400.38 665.61
  Q 370.80 653.66 340.50 664.77
  Q 326.61 669.86 315.43 678.16"
/>
<path stroke="#92cfe4" vector-effect="non-scaling-stroke" d="
  M 661.62 792.15
  Q 630.73 761.19 588.23 757.06
  Q 582.24 756.48 568.25 756.46
  Q 550.12 756.42 532.00 756.30
  C 524.85 756.25 512.99 756.53 503.00 756.27
  C 489.41 755.92 472.88 755.74 459.61 758.19
  Q 448.42 760.25 438.18 764.16
  Q 407.38 775.91 388.07 803.32"
/>
<path stroke="#92cfe4" vector-effect="non-scaling-stroke" d="
  M 340.24 648.74
  Q 329.99 652.36 318.55 658.27
  C 308.78 663.32 299.29 658.79 290.81 654.16
  Q 274.70 645.38 258.21 637.33
  Q 252.61 634.59 242.37 631.36"
/>
<path stroke="#92cfe4" vector-effect="non-scaling-stroke" d="
  M 222.48 616.24
  Q 244.93 614.72 265.07 624.01
  Q 265.11 624.03 274.13 628.94
  Q 285.55 635.15 298.69 636.60
  Q 302.76 637.05 306.87 637.91
  A 0.44 0.44 0.0 0 0 307.37 637.32
  Q 307.15 636.73 306.56 636.20
  C 289.52 620.88 272.79 607.54 249.03 602.82
  C 238.44 600.72 229.86 600.40 217.87 599.98"
/>
<path stroke="#92cfe4" vector-effect="non-scaling-stroke" d="
  M 295.93 555.30
  Q 288.22 558.27 280.66 561.68
  Q 270.58 566.21 265.33 567.78
  Q 240.82 575.11 215.00 572.53
  Q 214.52 572.49 213.36 572.77"
/>
<path stroke="#812c45" vector-effect="non-scaling-stroke" d="
  M 378.78 557.93
  Q 379.20 557.81 379.47 557.88
  Q 380.04 558.03 379.72 558.52
  C 376.97 562.80 372.91 566.52 372.87 571.76
  Q 372.70 595.89 372.80 620.44
  A 0.88 0.87 -1.3 0 0 373.72 621.31
  Q 401.35 620.14 424.95 634.50
  Q 435.52 640.93 446.34 647.61
  A 1.82 1.80 41.6 0 0 448.39 647.50
  Q 455.90 641.71 464.11 635.92
  C 486.37 620.23 513.65 615.46 540.07 622.97
  Q 548.50 625.36 558.55 630.50
  Q 573.81 638.30 587.77 648.32
  A 0.38 0.37 44.2 0 0 588.22 648.32
  Q 594.39 643.77 600.63 639.14
  C 615.29 628.26 633.23 621.02 651.69 621.24
  A 0.62 0.62 0.0 0 0 652.31 620.63
  Q 652.62 597.75 652.61 575.00
  C 652.61 570.96 652.82 568.26 650.29 564.93
  Q 647.91 561.82 646.32 558.25"
/>
<path stroke="#768a97" vector-effect="non-scaling-stroke" d="
  M 646.32 558.25
  L 672.45 558.13
  A 0.90 0.90 0.0 0 1 673.36 559.04
  L 673.15 623.79
  A 0.14 0.14 0.0 0 0 673.37 623.91
  Q 685.53 615.32 693.12 602.85
  Q 709.89 575.31 700.63 544.05
  C 692.37 516.18 667.30 496.26 637.54 502.07
  A 0.84 0.84 0.0 0 1 636.72 501.77
  Q 635.38 500.10 634.78 498.95
  Q 630.52 490.82 622.98 473.77
  C 615.12 455.95 594.94 440.54 574.50 440.52
  Q 513.88 440.45 453.25 440.56
  C 431.04 440.61 411.62 453.59 402.47 473.71
  Q 396.14 487.66 388.88 501.21
  A 0.97 0.97 0.0 0 1 387.86 501.71
  C 368.15 498.30 349.34 505.78 336.85 521.33
  C 311.17 553.30 319.06 599.83 351.68 623.94
  A 0.36 0.36 0.0 0 0 352.25 623.65
  L 352.17 558.71
  Q 352.17 558.21 352.67 558.20
  L 378.78 557.93"
/>
<path stroke="#e890a3" vector-effect="non-scaling-stroke" d="
  M 646.32 558.25
  L 638.70 544.50
  A 0.86 0.85 77.3 0 1 639.50 543.23
  Q 648.88 543.85 658.75 543.57
  C 674.46 543.13 674.85 519.42 658.74 517.87
  Q 651.72 517.20 639.00 517.97
  C 633.72 518.29 632.24 522.41 631.02 526.68
  Q 630.42 528.75 629.45 526.83
  Q 620.16 508.53 610.90 490.60
  C 603.93 477.09 599.74 463.20 583.19 458.15
  Q 578.47 456.70 568.17 456.70
  Q 512.26 456.68 456.36 456.75
  C 444.61 456.76 436.74 458.12 428.85 465.82
  C 424.96 469.62 422.68 474.37 420.14 479.53
  Q 412.50 495.07 398.70 521.62
  Q 396.95 524.99 395.69 527.92
  A 0.69 0.69 0.0 0 1 394.38 527.76
  C 392.40 515.88 384.02 517.41 374.76 517.67
  C 366.96 517.89 360.83 518.09 356.79 524.36
  C 351.61 532.39 356.07 542.60 365.99 543.30
  C 372.92 543.78 379.95 543.49 386.92 543.29
  Q 387.51 543.27 387.20 543.78
  Q 383.26 550.15 380.39 556.93
  C 380.08 557.67 379.52 557.89 378.78 557.93"
/>
<path stroke="#768a97" vector-effect="non-scaling-stroke" d="
  M 460.77 827.01
  L 486.10 831.44
  A 1.24 1.22 21.4 0 0 487.34 830.91
  C 490.15 826.67 497.07 827.52 501.50 827.55
  Q 530.95 827.77 560.40 827.51
  C 562.27 827.50 564.91 828.05 566.75 827.74
  Q 575.53 826.28 586.87 822.67"
/>
<path stroke="#2b6b86" vector-effect="non-scaling-stroke" d="
  M 586.87 822.67
  Q 603.89 817.75 619.96 811.42
  Q 620.90 811.05 619.95 810.71
  Q 618.83 810.32 617.72 809.28
  Q 601.33 794.06 578.75 793.84
  Q 548.88 793.55 519.00 793.55
  Q 498.75 793.54 478.50 793.59
  Q 459.68 793.63 444.36 803.69
  C 439.51 806.87 435.42 811.36 431.61 815.86
  Q 430.79 816.82 429.89 817.09
  A 0.53 0.53 0.0 0 0 429.76 818.05
  C 432.12 819.52 434.20 819.95 436.78 820.70
  Q 448.79 824.16 460.77 827.01"
/>
<path stroke="#92cfe4" vector-effect="non-scaling-stroke" d="
  M 586.87 822.67
  C 584.86 820.87 582.93 818.73 580.94 817.27
  C 573.99 812.18 566.24 811.12 558.75 811.06
  Q 541.86 810.90 494.75 811.19
  C 480.33 811.27 469.71 814.82 460.77 827.01"
/>
<path stroke="#768a97" vector-effect="non-scaling-stroke" d="
  M 605.37 302.76
  C 618.86 267.38 613.98 225.70 587.58 197.40
  C 567.62 176.00 541.19 164.48 512.00 164.62
  C 460.52 164.88 416.18 203.14 412.46 255.75
  Q 410.17 288.21 426.29 316.18
  Q 448.05 353.91 469.59 391.10
  A 2.21 2.19 74.7 0 0 471.49 392.20
  L 554.63 392.07
  A 0.68 0.66 14.2 0 0 555.22 391.73
  Q 575.37 356.77 595.73 321.71
  Q 602.78 309.56 605.37 302.76"
/>
<path stroke="#768a97" vector-effect="non-scaling-stroke" d="
  M 531.52 206.80
  Q 520.02 201.82 509.48 202.76
  C 473.41 205.94 451.37 243.71 469.28 276.23
  Q 490.29 314.38 512.44 351.71
  A 0.33 0.33 0.0 0 0 513.04 351.64
  Q 513.62 349.82 514.59 348.13
  C 527.88 324.92 541.42 301.86 554.66 278.61
  C 569.87 251.91 560.23 219.21 531.52 206.80"
/>
<path stroke="#768a97" vector-effect="non-scaling-stroke" d="
  M 506.20 218.68
  C 496.32 222.76 497.10 232.02 499.07 240.73
  Q 502.04 253.87 505.00 267.00
  C 505.91 271.08 508.02 277.23 512.97 275.97
  Q 518.02 274.68 519.38 268.77
  Q 522.26 256.24 525.33 243.76
  Q 527.02 236.90 527.27 232.00
  C 527.85 220.59 515.87 214.68 506.20 218.68"
/>
<path stroke="#768a97" vector-effect="non-scaling-stroke" d="
  M 523.51 296.74
  A 11.08 11.08 0.0 0 0 512.43 285.66
  A 11.08 11.08 0.0 0 0 501.35 296.74
  A 11.08 11.08 0.0 0 0 512.43 307.82
  A 11.08 11.08 0.0 0 0 523.51 296.74"
/>
<path stroke="#768a97" vector-effect="non-scaling-stroke" d="
  M 690.03 345.08
  Q 687.32 350.23 686.48 353.24
  C 682.37 368.09 699.31 375.43 710.24 367.70
  Q 719.52 361.13 714.84 350.45
  Q 708.96 337.01 701.99 323.57
  A 0.64 0.64 0.0 0 0 700.85 323.58
  C 697.34 330.75 694.04 337.48 690.03 345.08"
/>
<path stroke="#768a97" vector-effect="non-scaling-stroke" d="
  M 651.25 409.09
  Q 647.83 415.54 647.12 419.23
  C 641.85 446.43 689.07 441.02 675.85 414.48
  Q 669.99 402.72 664.39 390.83
  Q 663.77 389.51 662.84 388.08
  A 0.68 0.68 0.0 0 0 661.65 388.16
  Q 656.78 398.67 651.25 409.09"
/>
<path stroke="#768a97" vector-effect="non-scaling-stroke" d="
  M 748.77 428.09
  Q 744.55 419.80 740.17 411.63
  A 0.69 0.69 0.0 0 0 738.95 411.63
  Q 731.43 425.70 723.75 439.93
  Q 720.65 445.67 719.94 448.41
  C 718.07 455.64 719.36 464.05 725.51 468.72
  Q 735.28 476.11 745.80 472.30
  C 758.55 467.68 762.41 456.09 756.68 444.05
  Q 753.86 438.11 748.77 428.09"
/>
<path stroke="#768a97" vector-effect="non-scaling-stroke" d="
  M 781.19 515.13
  C 777.41 507.59 774.13 499.76 769.72 492.58
  A 0.25 0.24 -47.4 0 0 769.29 492.60
  Q 762.86 505.07 756.76 517.77
  C 744.50 543.31 782.39 548.05 784.68 527.83
  C 785.15 523.71 783.09 518.92 781.19 515.13"
/>
<path stroke="#768a97" vector-effect="non-scaling-stroke" d="
  M 336.65 351.06
  C 332.81 341.62 328.23 332.34 323.29 323.30
  A 0.47 0.46 43.9 0 0 322.47 323.31
  Q 316.45 335.56 310.19 347.96
  Q 306.98 354.31 308.78 360.64
  C 313.90 378.72 344.77 370.97 336.65 351.06"
/>
<path stroke="#768a97" vector-effect="non-scaling-stroke" d="
  M 376.25 415.75
  C 371.29 404.91 367.61 396.79 362.76 387.67
  A 0.57 0.57 0.0 0 0 361.74 387.70
  Q 355.38 401.47 348.29 415.27
  Q 344.32 422.98 348.24 429.94
  C 357.15 445.78 384.72 434.26 376.25 415.75"
/>
<path stroke="#92cfe4" vector-effect="non-scaling-stroke" d="
  M 322.79 424.84
  Q 319.50 418.18 315.65 411.78
  A 0.50 0.50 0.0 0 0 314.78 411.80
  Q 306.12 427.85 297.86 444.30
  C 293.22 453.54 295.61 465.41 304.98 469.78
  C 321.49 477.47 341.48 463.14 332.43 444.52
  Q 327.64 434.67 322.79 424.84"
/>
<path stroke="#768a97" vector-effect="non-scaling-stroke" d="
  M 256.74 481.72
  C 251.09 490.41 246.25 499.95 241.35 509.11
  C 236.85 517.54 234.96 526.03 240.73 533.76
  C 252.99 550.21 281.51 537.95 274.71 516.51
  Q 273.31 512.07 271.96 509.51
  Q 264.72 495.70 257.71 481.78
  A 0.56 0.56 0.0 0 0 256.74 481.72"
/>
<path stroke="#e890a3" vector-effect="non-scaling-stroke" d="
  M 414.91 536.39
  Q 419.57 536.66 424.25 536.68
  Q 501.50 536.90 578.75 536.79
  C 588.76 536.78 598.85 536.92 608.86 536.51
  C 610.12 536.46 611.10 536.96 612.31 537.19
  A 0.50 0.49 84.7 0 0 612.86 536.52
  Q 612.17 534.82 611.33 533.20
  Q 597.58 506.85 583.57 480.62
  C 582.68 478.96 580.95 475.25 578.78 475.17
  Q 560.39 474.47 542.00 474.91
  C 510.58 475.65 479.13 475.44 447.70 475.12
  C 445.22 475.10 444.09 476.01 443.03 478.06
  Q 427.96 507.01 413.02 535.82
  Q 412.14 537.53 413.88 536.73
  Q 413.94 536.70 414.38 536.49
  Q 414.62 536.37 414.91 536.39"
/>
<path stroke="#812c45" vector-effect="non-scaling-stroke" d="
  M 446.09 588.98
  A 28.05 28.05 0.0 0 0 418.04 560.93
  A 28.05 28.05 0.0 0 0 389.99 588.98
  A 28.05 28.05 0.0 0 0 418.04 617.03
  A 28.05 28.05 0.0 0 0 446.09 588.98"
/>
<path stroke="#812c45" vector-effect="non-scaling-stroke" d="
  M 635.36 588.98
  A 27.99 27.99 0.0 0 0 607.37 560.99
  A 27.99 27.99 0.0 0 0 579.38 588.98
  A 27.99 27.99 0.0 0 0 607.37 616.97
  A 27.99 27.99 0.0 0 0 635.36 588.98"
/>
<path stroke="#812c45" vector-effect="non-scaling-stroke" d="
  M 530.16 617.63
  Q 538.40 617.86 543.25 617.41
  C 554.38 616.39 563.62 609.72 565.44 598.64
  C 567.58 585.65 565.56 567.64 548.25 567.69
  C 524.29 567.74 500.18 567.03 476.25 567.83
  C 459.48 568.39 458.11 587.26 460.49 599.51
  C 462.95 612.14 473.69 617.42 485.50 617.54
  C 498.77 617.66 514.95 617.22 530.16 617.63"
/>
<path stroke="#768a97" vector-effect="non-scaling-stroke" d="
  M 430.4205 596.7069
  A 14.70 14.38 31.3 0 0 425.3307 576.7829
  A 14.70 14.38 31.3 0 0 405.2995 581.4331
  A 14.70 14.38 31.3 0 0 410.3893 601.3571
  A 14.70 14.38 31.3 0 0 430.4205 596.7069"
/>
<path stroke="#768a97" vector-effect="non-scaling-stroke" d="
  M 619.6473 597.2670
  A 14.74 14.53 33.6 0 0 615.4108 577.0077
  A 14.74 14.53 33.6 0 0 595.0927 580.9530
  A 14.74 14.53 33.6 0 0 599.3292 601.2123
  A 14.74 14.53 33.6 0 0 619.6473 597.2670"
/>
</g>
<path fill="#ddeef5" d="
  M 0.00 0.00
  L 1024.00 0.00
  L 1024.00 1024.00
  L 0.00 1024.00
  L 0.00 0.00
  Z
  M 351.04 248.29
  Q 345.02 251.14 339.23 254.49
  C 297.52 278.70 263.57 310.84 235.88 350.09
  Q 190.84 413.94 180.82 491.73
  C 176.79 523.03 178.00 554.56 183.40 586.30
  C 198.65 675.94 248.36 752.63 323.48 803.25
  C 377.36 839.56 439.33 860.85 504.49 863.20
  C 526.42 863.99 548.09 862.02 570.00 858.02
  C 599.72 852.60 628.60 843.85 655.52 830.99
  C 748.04 786.78 816.17 705.17 838.54 604.55
  C 847.04 566.29 849.90 527.56 844.72 489.50
  C 835.69 423.14 804.79 361.55 758.90 312.09
  Q 729.76 280.69 692.19 258.40
  Q 683.20 253.08 674.43 248.06
  A 2.29 2.29 0.0 0 1 673.29 246.35
  Q 669.74 218.15 656.11 193.40
  Q 649.74 181.84 644.15 174.35
  C 615.73 136.32 569.88 112.20 522.26 109.68
  C 463.37 106.55 407.67 133.19 375.36 182.87
  C 364.03 200.31 355.93 219.04 352.96 239.03
  Q 352.32 243.30 351.59 247.58
  Q 351.50 248.08 351.04 248.29
  Z
  M 267.7006 267.5345
  A 11.61 11.33 93.8 0 0 279.7751 256.7009
  A 11.61 11.33 93.8 0 0 269.2394 244.3655
  A 11.61 11.33 93.8 0 0 257.1649 255.1991
  A 11.61 11.33 93.8 0 0 267.7006 267.5345
  Z
  M 753.8163 267.1945
  A 11.53 11.26 103.0 0 0 767.3814 258.4929
  A 11.53 11.26 103.0 0 0 759.0037 244.7255
  A 11.53 11.26 103.0 0 0 745.4386 253.4271
  A 11.53 11.26 103.0 0 0 753.8163 267.1945
  Z
  M 193.99 352.64
  A 9.23 9.23 0.0 0 0 184.76 343.41
  A 9.23 9.23 0.0 0 0 175.53 352.64
  A 9.23 9.23 0.0 0 0 184.76 361.87
  A 9.23 9.23 0.0 0 0 193.99 352.64
  Z
  M 840.7160 361.8806
  A 9.24 9.01 83.5 0 0 848.6221 351.6800
  A 9.24 9.01 83.5 0 0 838.6240 343.5194
  A 9.24 9.01 83.5 0 0 830.7179 353.7200
  A 9.24 9.01 83.5 0 0 840.7160 361.8806
  Z
  M 191.99 724.12
  A 8.32 8.32 0.0 0 0 183.67 715.80
  A 8.32 8.32 0.0 0 0 175.35 724.12
  A 8.32 8.32 0.0 0 0 183.67 732.44
  A 8.32 8.32 0.0 0 0 191.99 724.12
  Z
  M 848.64 724.18
  A 8.32 8.32 0.0 0 0 840.32 715.86
  A 8.32 8.32 0.0 0 0 832.00 724.18
  A 8.32 8.32 0.0 0 0 840.32 732.50
  A 8.32 8.32 0.0 0 0 848.64 724.18
  Z
  M 754.5172 827.8694
  A 11.47 11.20 99.6 0 0 767.4732 818.4278
  A 11.47 11.20 99.6 0 0 758.3428 805.2506
  A 11.47 11.20 99.6 0 0 745.3868 814.6922
  A 11.47 11.20 99.6 0 0 754.5172 827.8694
  Z
  M 266.6904 828.0192
  A 11.44 11.24 99.0 0 0 279.5816 818.4783
  A 11.44 11.24 99.0 0 0 270.2696 805.4208
  A 11.44 11.24 99.0 0 0 257.3784 814.9617
  A 11.44 11.24 99.0 0 0 266.6904 828.0192
  Z
  M 522.97 925.22
  A 10.25 10.25 0.0 0 0 512.72 914.97
  A 10.25 10.25 0.0 0 0 502.47 925.22
  A 10.25 10.25 0.0 0 0 512.72 935.47
  A 10.25 10.25 0.0 0 0 522.97 925.22
  Z"
/>
<path fill="#0f2639" d="
  M 351.59 247.58
  Q 352.32 243.30 352.96 239.03
  C 355.93 219.04 364.03 200.31 375.36 182.87
  C 407.67 133.19 463.37 106.55 522.26 109.68
  C 569.88 112.20 615.73 136.32 644.15 174.35
  Q 649.74 181.84 656.11 193.40
  Q 669.74 218.15 673.29 246.35
  A 2.29 2.29 0.0 0 0 674.43 248.06
  Q 683.20 253.08 692.19 258.40
  Q 729.76 280.69 758.90 312.09
  C 804.79 361.55 835.69 423.14 844.72 489.50
  C 849.90 527.56 847.04 566.29 838.54 604.55
  C 816.17 705.17 748.04 786.78 655.52 830.99
  C 628.60 843.85 599.72 852.60 570.00 858.02
  C 548.09 862.02 526.42 863.99 504.49 863.20
  C 439.33 860.85 377.36 839.56 323.48 803.25
  C 248.36 752.63 198.65 675.94 183.40 586.30
  C 178.00 554.56 176.79 523.03 180.82 491.73
  Q 190.84 413.94 235.88 350.09
  C 263.57 310.84 297.52 278.70 339.23 254.49
  Q 345.02 251.14 351.04 248.29
  Q 351.50 248.08 351.59 247.58
  Z
  M 634.74 317.75
  C 659.85 272.11 648.86 214.76 613.71 177.79
  C 569.20 130.98 499.89 121.03 443.54 152.07
  C 386.80 183.34 359.28 255.52 389.07 314.73
  Q 402.05 340.51 420.23 372.52
  C 428.51 387.10 436.37 401.94 445.14 416.26
  Q 445.93 417.54 447.43 417.54
  L 578.04 417.48
  A 2.64 2.63 14.4 0 0 580.35 416.12
  Q 608.09 366.20 634.74 317.75
  Z
  M 729.39 555.62
  C 730.63 571.93 728.23 586.63 722.38 601.66
  A 0.81 0.81 0.0 0 0 723.04 602.75
  Q 726.09 603.10 729.14 603.10
  C 732.32 603.09 735.28 601.99 738.19 600.86
  A 0.16 0.16 0.0 0 1 738.34 601.15
  Q 727.92 607.81 717.67 615.21
  Q 714.98 617.15 712.96 619.89
  C 705.22 630.37 697.81 639.61 687.47 648.05
  Q 680.28 646.17 678.25 645.76
  C 665.53 643.19 651.28 643.18 638.74 646.73
  C 620.11 651.99 604.51 663.79 589.29 675.17
  A 0.98 0.97 42.2 0 1 588.19 675.22
  Q 572.20 665.53 556.08 656.25
  Q 545.15 649.96 540.71 648.29
  C 516.94 639.35 491.15 643.11 471.24 659.60
  Q 470.49 660.23 471.36 660.66
  L 484.94 667.47
  C 496.23 672.26 504.99 672.89 515.91 673.73
  C 529.21 674.75 539.33 681.03 550.14 689.15
  Q 550.43 689.36 550.15 689.60
  Q 550.03 689.69 549.88 689.80
  Q 548.13 689.14 547.38 689.08
  Q 532.40 687.86 517.49 689.15
  Q 502.58 690.45 499.98 690.39
  C 483.23 690.05 467.55 684.58 452.97 676.58
  C 439.21 669.03 425.76 661.13 411.77 653.99
  C 389.13 642.42 364.54 640.97 340.24 648.74
  Q 329.02 640.75 322.81 633.19
  Q 317.72 627.01 312.72 620.75
  C 312.26 620.17 311.89 619.22 311.30 618.65
  Q 310.99 618.35 310.89 617.94
  Q 310.67 617.11 309.65 615.50
  C 307.29 611.78 304.97 608.19 303.34 604.15
  Q 293.88 580.67 295.93 555.30
  Q 297.59 543.88 300.28 535.50
  C 309.10 508.05 331.51 484.24 360.49 478.02
  Q 363.94 477.28 372.40 476.23
  Q 372.91 476.17 373.08 475.69
  Q 374.63 471.44 376.38 467.30
  Q 388.39 438.82 415.81 424.77
  Q 416.18 424.58 416.98 424.05
  Q 417.59 423.64 418.10 423.61
  Q 419.50 423.50 418.82 422.27
  C 404.04 395.59 389.27 368.90 374.60 342.16
  C 363.52 321.98 355.44 304.29 352.47 282.52
  Q 352.38 281.92 351.86 282.24
  C 295.62 316.74 251.45 369.62 227.65 430.61
  C 210.22 475.29 205.79 524.74 213.00 571.99
  Q 213.07 572.48 213.36 572.77
  Q 213.27 573.94 213.42 574.99
  Q 215.23 587.62 217.87 599.98
  L 222.48 616.24
  Q 222.84 618.07 223.75 618.75
  Q 232.32 625.16 242.37 631.36
  L 315.43 678.16
  L 330.82 687.94
  A 1.28 1.27 39.3 0 0 332.39 687.79
  C 350.39 670.60 378.72 669.66 399.74 681.50
  Q 405.79 684.91 411.77 688.44
  Q 414.55 690.08 415.33 691.53
  C 406.48 693.71 394.23 698.96 385.40 693.59
  Q 381.40 691.16 377.24 689.08
  C 362.52 681.71 346.63 682.72 331.96 689.62
  Q 322.56 694.60 314.11 701.34
  Q 311.25 699.79 308.17 697.88
  Q 304.35 695.51 302.27 694.32
  C 278.13 680.54 259.93 668.98 238.75 656.38
  Q 237.51 655.64 238.03 656.98
  Q 242.95 669.56 250.27 680.46
  Q 258.72 696.24 269.56 709.20
  C 270.63 710.48 271.68 712.43 272.89 713.87
  C 278.35 720.39 283.93 727.48 289.48 733.30
  Q 310.45 755.32 335.36 772.91
  Q 335.70 773.15 336.47 773.26
  L 350.29 782.73
  Q 362.19 790.18 365.50 792.00
  Q 372.33 795.76 388.07 803.32
  L 404.07 811.10
  A 0.98 0.98 0.0 0 0 405.43 810.51
  Q 405.76 809.46 406.66 808.16
  C 422.02 786.13 446.70 774.17 473.26 772.57
  Q 475.20 772.46 493.26 772.45
  Q 531.13 772.43 568.99 772.32
  Q 582.96 772.28 587.25 772.58
  C 608.22 774.00 630.68 784.15 644.82 800.52
  Q 645.16 800.91 645.61 800.67
  L 661.62 792.15
  Q 676.49 783.62 682.36 779.35
  Q 691.97 772.38 701.40 765.15
  Q 729.23 743.82 750.89 716.24
  C 751.76 715.13 752.33 713.61 753.51 712.39
  Q 758.07 707.69 761.87 702.35
  Q 770.41 690.36 778.02 676.95
  L 787.23 657.67
  Q 787.90 656.28 786.60 657.11
  L 717.27 701.45
  L 699.30 689.69
  Q 698.22 688.98 699.29 688.26
  L 715.53 677.34
  L 780.80 633.50
  Q 793.18 626.20 804.11 616.14
  Q 804.89 608.79 807.53 600.46
  L 812.22 572.29
  C 831.21 459.57 776.24 352.53 684.78 289.22
  C 681.06 286.64 677.01 284.34 673.03 282.10
  Q 672.60 281.86 672.54 282.34
  Q 669.34 306.96 657.66 328.86
  C 640.89 360.28 623.25 391.27 605.83 422.38
  A 0.75 0.75 0.0 0 0 606.17 423.43
  C 629.51 433.92 643.76 451.67 652.35 475.65
  A 0.79 0.77 82.3 0 0 653.02 476.17
  C 688.09 479.39 715.39 502.17 725.48 535.74
  Q 728.23 544.89 729.39 555.62
  Z
  M 378.78 557.93
  Q 379.20 557.81 379.47 557.88
  Q 380.04 558.03 379.72 558.52
  C 376.97 562.80 372.91 566.52 372.87 571.76
  Q 372.70 595.89 372.80 620.44
  A 0.88 0.87 -1.3 0 0 373.72 621.31
  Q 401.35 620.14 424.95 634.50
  Q 435.52 640.93 446.34 647.61
  A 1.82 1.80 41.6 0 0 448.39 647.50
  Q 455.90 641.71 464.11 635.92
  C 486.37 620.23 513.65 615.46 540.07 622.97
  Q 548.50 625.36 558.55 630.50
  Q 573.81 638.30 587.77 648.32
  A 0.38 0.37 44.2 0 0 588.22 648.32
  Q 594.39 643.77 600.63 639.14
  C 615.29 628.26 633.23 621.02 651.69 621.24
  A 0.62 0.62 0.0 0 0 652.31 620.63
  Q 652.62 597.75 652.61 575.00
  C 652.61 570.96 652.82 568.26 650.29 564.93
  Q 647.91 561.82 646.32 558.25
  L 672.45 558.13
  A 0.90 0.90 0.0 0 1 673.36 559.04
  L 673.15 623.79
  A 0.14 0.14 0.0 0 0 673.37 623.91
  Q 685.53 615.32 693.12 602.85
  Q 709.89 575.31 700.63 544.05
  C 692.37 516.18 667.30 496.26 637.54 502.07
  A 0.84 0.84 0.0 0 1 636.72 501.77
  Q 635.38 500.10 634.78 498.95
  Q 630.52 490.82 622.98 473.77
  C 615.12 455.95 594.94 440.54 574.50 440.52
  Q 513.88 440.45 453.25 440.56
  C 431.04 440.61 411.62 453.59 402.47 473.71
  Q 396.14 487.66 388.88 501.21
  A 0.97 0.97 0.0 0 1 387.86 501.71
  C 368.15 498.30 349.34 505.78 336.85 521.33
  C 311.17 553.30 319.06 599.83 351.68 623.94
  A 0.36 0.36 0.0 0 0 352.25 623.65
  L 352.17 558.71
  Q 352.17 558.21 352.67 558.20
  L 378.78 557.93
  Z
  M 460.77 827.01
  L 486.10 831.44
  A 1.24 1.22 21.4 0 0 487.34 830.91
  C 490.15 826.67 497.07 827.52 501.50 827.55
  Q 530.95 827.77 560.40 827.51
  C 562.27 827.50 564.91 828.05 566.75 827.74
  Q 575.53 826.28 586.87 822.67
  Q 603.89 817.75 619.96 811.42
  Q 620.90 811.05 619.95 810.71
  Q 618.83 810.32 617.72 809.28
  Q 601.33 794.06 578.75 793.84
  Q 548.88 793.55 519.00 793.55
  Q 498.75 793.54 478.50 793.59
  Q 459.68 793.63 444.36 803.69
  C 439.51 806.87 435.42 811.36 431.61 815.86
  Q 430.79 816.82 429.89 817.09
  A 0.53 0.53 0.0 0 0 429.76 818.05
  C 432.12 819.52 434.20 819.95 436.78 820.70
  Q 448.79 824.16 460.77 827.01
  Z"
/>
<path fill="#ddeef5" d="
  M 613.71 177.79
  C 648.86 214.76 659.85 272.11 634.74 317.75
  Q 608.09 366.20 580.35 416.12
  A 2.64 2.63 14.4 0 1 578.04 417.48
  L 447.43 417.54
  Q 445.93 417.54 445.14 416.26
  C 436.37 401.94 428.51 387.10 420.23 372.52
  Q 402.05 340.51 389.07 314.73
  C 359.28 255.52 386.80 183.34 443.54 152.07
  C 499.89 121.03 569.20 130.98 613.71 177.79
  Z
  M 605.37 302.76
  C 618.86 267.38 613.98 225.70 587.58 197.40
  C 567.62 176.00 541.19 164.48 512.00 164.62
  C 460.52 164.88 416.18 203.14 412.46 255.75
  Q 410.17 288.21 426.29 316.18
  Q 448.05 353.91 469.59 391.10
  A 2.21 2.19 74.7 0 0 471.49 392.20
  L 554.63 392.07
  A 0.68 0.66 14.2 0 0 555.22 391.73
  Q 575.37 356.77 595.73 321.71
  Q 602.78 309.56 605.37 302.76
  Z"
/>
<path fill="#0f2639" d="
  M 587.58 197.40
  C 613.98 225.70 618.86 267.38 605.37 302.76
  Q 602.78 309.56 595.73 321.71
  Q 575.37 356.77 555.22 391.73
  A 0.68 0.66 14.2 0 1 554.63 392.07
  L 471.49 392.20
  A 2.21 2.19 74.7 0 1 469.59 391.10
  Q 448.05 353.91 426.29 316.18
  Q 410.17 288.21 412.46 255.75
  C 416.18 203.14 460.52 164.88 512.00 164.62
  C 541.19 164.48 567.62 176.00 587.58 197.40
  Z
  M 531.52 206.80
  Q 520.02 201.82 509.48 202.76
  C 473.41 205.94 451.37 243.71 469.28 276.23
  Q 490.29 314.38 512.44 351.71
  A 0.33 0.33 0.0 0 0 513.04 351.64
  Q 513.62 349.82 514.59 348.13
  C 527.88 324.92 541.42 301.86 554.66 278.61
  C 569.87 251.91 560.23 219.21 531.52 206.80
  Z"
/>
<path fill="#ddeef5" d="
  M 531.52 206.80
  C 560.23 219.21 569.87 251.91 554.66 278.61
  C 541.42 301.86 527.88 324.92 514.59 348.13
  Q 513.62 349.82 513.04 351.64
  A 0.33 0.33 0.0 0 1 512.44 351.71
  Q 490.29 314.38 469.28 276.23
  C 451.37 243.71 473.41 205.94 509.48 202.76
  Q 520.02 201.82 531.52 206.80
  Z
  M 506.20 218.68
  C 496.32 222.76 497.10 232.02 499.07 240.73
  Q 502.04 253.87 505.00 267.00
  C 505.91 271.08 508.02 277.23 512.97 275.97
  Q 518.02 274.68 519.38 268.77
  Q 522.26 256.24 525.33 243.76
  Q 527.02 236.90 527.27 232.00
  C 527.85 220.59 515.87 214.68 506.20 218.68
  Z
  M 523.51 296.74
  A 11.08 11.08 0.0 0 0 512.43 285.66
  A 11.08 11.08 0.0 0 0 501.35 296.74
  A 11.08 11.08 0.0 0 0 512.43 307.82
  A 11.08 11.08 0.0 0 0 523.51 296.74
  Z"
/>
<path fill="#0f2639" d="
  M 506.20 218.68
  C 515.87 214.68 527.85 220.59 527.27 232.00
  Q 527.02 236.90 525.33 243.76
  Q 522.26 256.24 519.38 268.77
  Q 518.02 274.68 512.97 275.97
  C 508.02 277.23 505.91 271.08 505.00 267.00
  Q 502.04 253.87 499.07 240.73
  C 497.10 232.02 496.32 222.76 506.20 218.68
  Z"
/>
<ellipse fill="#0f2639" cx="0.00" cy="0.00" transform="translate(268.47,255.95) rotate(93.8)" rx="11.61" ry="11.33"/>
<ellipse fill="#0f2639" cx="0.00" cy="0.00" transform="translate(756.41,255.96) rotate(103.0)" rx="11.53" ry="11.26"/>
<path fill="#ddeef5" d="
  M 812.22 572.29
  C 790.74 574.76 765.78 572.23 745.85 562.90
  Q 734.77 557.71 729.39 555.62
  Q 728.23 544.89 725.48 535.74
  C 715.39 502.17 688.09 479.39 653.02 476.17
  A 0.79 0.77 82.3 0 1 652.35 475.65
  C 643.76 451.67 629.51 433.92 606.17 423.43
  A 0.75 0.75 0.0 0 1 605.83 422.38
  C 623.25 391.27 640.89 360.28 657.66 328.86
  Q 669.34 306.96 672.54 282.34
  Q 672.60 281.86 673.03 282.10
  C 677.01 284.34 681.06 286.64 684.78 289.22
  C 776.24 352.53 831.21 459.57 812.22 572.29
  Z
  M 690.03 345.08
  Q 687.32 350.23 686.48 353.24
  C 682.37 368.09 699.31 375.43 710.24 367.70
  Q 719.52 361.13 714.84 350.45
  Q 708.96 337.01 701.99 323.57
  A 0.64 0.64 0.0 0 0 700.85 323.58
  C 697.34 330.75 694.04 337.48 690.03 345.08
  Z
  M 651.25 409.09
  Q 647.83 415.54 647.12 419.23
  C 641.85 446.43 689.07 441.02 675.85 414.48
  Q 669.99 402.72 664.39 390.83
  Q 663.77 389.51 662.84 388.08
  A 0.68 0.68 0.0 0 0 661.65 388.16
  Q 656.78 398.67 651.25 409.09
  Z
  M 748.77 428.09
  Q 744.55 419.80 740.17 411.63
  A 0.69 0.69 0.0 0 0 738.95 411.63
  Q 731.43 425.70 723.75 439.93
  Q 720.65 445.67 719.94 448.41
  C 718.07 455.64 719.36 464.05 725.51 468.72
  Q 735.28 476.11 745.80 472.30
  C 758.55 467.68 762.41 456.09 756.68 444.05
  Q 753.86 438.11 748.77 428.09
  Z
  M 781.19 515.13
  C 777.41 507.59 774.13 499.76 769.72 492.58
  A 0.25 0.24 -47.4 0 0 769.29 492.60
  Q 762.86 505.07 756.76 517.77
  C 744.50 543.31 782.39 548.05 784.68 527.83
  C 785.15 523.71 783.09 518.92 781.19 515.13
  Z"
/>
<path fill="#ddeef5" d="
  M 295.93 555.30
  Q 288.22 558.27 280.66 561.68
  Q 270.58 566.21 265.33 567.78
  Q 240.82 575.11 215.00 572.53
  Q 214.52 572.49 213.36 572.77
  Q 213.07 572.48 213.00 571.99
  C 205.79 524.74 210.22 475.29 227.65 430.61
  C 251.45 369.62 295.62 316.74 351.86 282.24
  Q 352.38 281.92 352.47 282.52
  C 355.44 304.29 363.52 321.98 374.60 342.16
  C 389.27 368.90 404.04 395.59 418.82 422.27
  Q 419.50 423.50 418.10 423.61
  Q 417.59 423.64 416.98 424.05
  Q 416.18 424.58 415.81 424.77
  Q 388.39 438.82 376.38 467.30
  Q 374.63 471.44 373.08 475.69
  Q 372.91 476.17 372.40 476.23
  Q 363.94 477.28 360.49 478.02
  C 331.51 484.24 309.10 508.05 300.28 535.50
  Q 297.59 543.88 295.93 555.30
  Z
  M 336.65 351.06
  C 332.81 341.62 328.23 332.34 323.29 323.30
  A 0.47 0.46 43.9 0 0 322.47 323.31
  Q 316.45 335.56 310.19 347.96
  Q 306.98 354.31 308.78 360.64
  C 313.90 378.72 344.77 370.97 336.65 351.06
  Z
  M 376.25 415.75
  C 371.29 404.91 367.61 396.79 362.76 387.67
  A 0.57 0.57 0.0 0 0 361.74 387.70
  Q 355.38 401.47 348.29 415.27
  Q 344.32 422.98 348.24 429.94
  C 357.15 445.78 384.72 434.26 376.25 415.75
  Z
  M 322.79 424.84
  Q 319.50 418.18 315.65 411.78
  A 0.50 0.50 0.0 0 0 314.78 411.80
  Q 306.12 427.85 297.86 444.30
  C 293.22 453.54 295.61 465.41 304.98 469.78
  C 321.49 477.47 341.48 463.14 332.43 444.52
  Q 327.64 434.67 322.79 424.84
  Z
  M 256.74 481.72
  C 251.09 490.41 246.25 499.95 241.35 509.11
  C 236.85 517.54 234.96 526.03 240.73 533.76
  C 252.99 550.21 281.51 537.95 274.71 516.51
  Q 273.31 512.07 271.96 509.51
  Q 264.72 495.70 257.71 481.78
  A 0.56 0.56 0.0 0 0 256.74 481.72
  Z"
/>
<circle fill="#0f2639" cx="512.43" cy="296.74" r="11.08"/>
<path fill="#0f2639" d="
  M 323.29 323.30
  C 328.23 332.34 332.81 341.62 336.65 351.06
  C 344.77 370.97 313.90 378.72 308.78 360.64
  Q 306.98 354.31 310.19 347.96
  Q 316.45 335.56 322.47 323.31
  A 0.47 0.46 43.9 0 1 323.29 323.30
  Z"
/>
<path fill="#0f2639" d="
  M 690.03 345.08
  C 694.04 337.48 697.34 330.75 700.85 323.58
  A 0.64 0.64 0.0 0 1 701.99 323.57
  Q 708.96 337.01 714.84 350.45
  Q 719.52 361.13 710.24 367.70
  C 699.31 375.43 682.37 368.09 686.48 353.24
  Q 687.32 350.23 690.03 345.08
  Z"
/>
<circle fill="#0f2639" cx="184.76" cy="352.64" r="9.23"/>
<ellipse fill="#0f2639" cx="0.00" cy="0.00" transform="translate(839.67,352.70) rotate(83.5)" rx="9.24" ry="9.01"/>
<path fill="#0f2639" d="
  M 362.76 387.67
  C 367.61 396.79 371.29 404.91 376.25 415.75
  C 384.72 434.26 357.15 445.78 348.24 429.94
  Q 344.32 422.98 348.29 415.27
  Q 355.38 401.47 361.74 387.70
  A 0.57 0.57 0.0 0 1 362.76 387.67
  Z"
/>
<path fill="#0f2639" d="
  M 651.25 409.09
  Q 656.78 398.67 661.65 388.16
  A 0.68 0.68 0.0 0 1 662.84 388.08
  Q 663.77 389.51 664.39 390.83
  Q 669.99 402.72 675.85 414.48
  C 689.07 441.02 641.85 446.43 647.12 419.23
  Q 647.83 415.54 651.25 409.09
  Z"
/>
<path fill="#0f2639" d="
  M 748.77 428.09
  Q 753.86 438.11 756.68 444.05
  C 762.41 456.09 758.55 467.68 745.80 472.30
  Q 735.28 476.11 725.51 468.72
  C 719.36 464.05 718.07 455.64 719.94 448.41
  Q 720.65 445.67 723.75 439.93
  Q 731.43 425.70 738.95 411.63
  A 0.69 0.69 0.0 0 1 740.17 411.63
  Q 744.55 419.80 748.77 428.09
  Z"
/>
<path fill="#46afd3" d="
  M 322.79 424.84
  Q 327.64 434.67 332.43 444.52
  C 341.48 463.14 321.49 477.47 304.98 469.78
  C 295.61 465.41 293.22 453.54 297.86 444.30
  Q 306.12 427.85 314.78 411.80
  A 0.50 0.50 0.0 0 1 315.65 411.78
  Q 319.50 418.18 322.79 424.84
  Z"
/>
<path fill="#ddeef5" d="
  M 646.32 558.25
  L 638.70 544.50
  A 0.86 0.85 77.3 0 1 639.50 543.23
  Q 648.88 543.85 658.75 543.57
  C 674.46 543.13 674.85 519.42 658.74 517.87
  Q 651.72 517.20 639.00 517.97
  C 633.72 518.29 632.24 522.41 631.02 526.68
  Q 630.42 528.75 629.45 526.83
  Q 620.16 508.53 610.90 490.60
  C 603.93 477.09 599.74 463.20 583.19 458.15
  Q 578.47 456.70 568.17 456.70
  Q 512.26 456.68 456.36 456.75
  C 444.61 456.76 436.74 458.12 428.85 465.82
  C 424.96 469.62 422.68 474.37 420.14 479.53
  Q 412.50 495.07 398.70 521.62
  Q 396.95 524.99 395.69 527.92
  A 0.69 0.69 0.0 0 1 394.38 527.76
  C 392.40 515.88 384.02 517.41 374.76 517.67
  C 366.96 517.89 360.83 518.09 356.79 524.36
  C 351.61 532.39 356.07 542.60 365.99 543.30
  C 372.92 543.78 379.95 543.49 386.92 543.29
  Q 387.51 543.27 387.20 543.78
  Q 383.26 550.15 380.39 556.93
  C 380.08 557.67 379.52 557.89 378.78 557.93
  L 352.67 558.20
  Q 352.17 558.21 352.17 558.71
  L 352.25 623.65
  A 0.36 0.36 0.0 0 1 351.68 623.94
  C 319.06 599.83 311.17 553.30 336.85 521.33
  C 349.34 505.78 368.15 498.30 387.86 501.71
  A 0.97 0.97 0.0 0 0 388.88 501.21
  Q 396.14 487.66 402.47 473.71
  C 411.62 453.59 431.04 440.61 453.25 440.56
  Q 513.88 440.45 574.50 440.52
  C 594.94 440.54 615.12 455.95 622.98 473.77
  Q 630.52 490.82 634.78 498.95
  Q 635.38 500.10 636.72 501.77
  A 0.84 0.84 0.0 0 0 637.54 502.07
  C 667.30 496.26 692.37 516.18 700.63 544.05
  Q 709.89 575.31 693.12 602.85
  Q 685.53 615.32 673.37 623.91
  A 0.14 0.14 0.0 0 1 673.15 623.79
  L 673.36 559.04
  A 0.90 0.90 0.0 0 0 672.45 558.13
  L 646.32 558.25
  Z"
/>
<path fill="#f23151" d="
  M 646.32 558.25
  Q 647.91 561.82 650.29 564.93
  C 652.82 568.26 652.61 570.96 652.61 575.00
  Q 652.62 597.75 652.31 620.63
  A 0.62 0.62 0.0 0 1 651.69 621.24
  C 633.23 621.02 615.29 628.26 600.63 639.14
  Q 594.39 643.77 588.22 648.32
  A 0.38 0.37 44.2 0 1 587.77 648.32
  Q 573.81 638.30 558.55 630.50
  Q 548.50 625.36 540.07 622.97
  C 513.65 615.46 486.37 620.23 464.11 635.92
  Q 455.90 641.71 448.39 647.50
  A 1.82 1.80 41.6 0 1 446.34 647.61
  Q 435.52 640.93 424.95 634.50
  Q 401.35 620.14 373.72 621.31
  A 0.88 0.87 -1.3 0 1 372.80 620.44
  Q 372.70 595.89 372.87 571.76
  C 372.91 566.52 376.97 562.80 379.72 558.52
  Q 380.04 558.03 379.47 557.88
  Q 379.20 557.81 378.78 557.93
  C 379.52 557.89 380.08 557.67 380.39 556.93
  Q 383.26 550.15 387.20 543.78
  Q 387.51 543.27 386.92 543.29
  C 379.95 543.49 372.92 543.78 365.99 543.30
  C 356.07 542.60 351.61 532.39 356.79 524.36
  C 360.83 518.09 366.96 517.89 374.76 517.67
  C 384.02 517.41 392.40 515.88 394.38 527.76
  A 0.69 0.69 0.0 0 0 395.69 527.92
  Q 396.95 524.99 398.70 521.62
  Q 412.50 495.07 420.14 479.53
  C 422.68 474.37 424.96 469.62 428.85 465.82
  C 436.74 458.12 444.61 456.76 456.36 456.75
  Q 512.26 456.68 568.17 456.70
  Q 578.47 456.70 583.19 458.15
  C 599.74 463.20 603.93 477.09 610.90 490.60
  Q 620.16 508.53 629.45 526.83
  Q 630.42 528.75 631.02 526.68
  C 632.24 522.41 633.72 518.29 639.00 517.97
  Q 651.72 517.20 658.74 517.87
  C 674.85 519.42 674.46 543.13 658.75 543.57
  Q 648.88 543.85 639.50 543.23
  A 0.86 0.85 77.3 0 0 638.70 544.50
  L 646.32 558.25
  Z
  M 414.91 536.39
  Q 419.57 536.66 424.25 536.68
  Q 501.50 536.90 578.75 536.79
  C 588.76 536.78 598.85 536.92 608.86 536.51
  C 610.12 536.46 611.10 536.96 612.31 537.19
  A 0.50 0.49 84.7 0 0 612.86 536.52
  Q 612.17 534.82 611.33 533.20
  Q 597.58 506.85 583.57 480.62
  C 582.68 478.96 580.95 475.25 578.78 475.17
  Q 560.39 474.47 542.00 474.91
  C 510.58 475.65 479.13 475.44 447.70 475.12
  C 445.22 475.10 444.09 476.01 443.03 478.06
  Q 427.96 507.01 413.02 535.82
  Q 412.14 537.53 413.88 536.73
  Q 413.94 536.70 414.38 536.49
  Q 414.62 536.37 414.91 536.39
  Z
  M 446.09 588.98
  A 28.05 28.05 0.0 0 0 418.04 560.93
  A 28.05 28.05 0.0 0 0 389.99 588.98
  A 28.05 28.05 0.0 0 0 418.04 617.03
  A 28.05 28.05 0.0 0 0 446.09 588.98
  Z
  M 635.36 588.98
  A 27.99 27.99 0.0 0 0 607.37 560.99
  A 27.99 27.99 0.0 0 0 579.38 588.98
  A 27.99 27.99 0.0 0 0 607.37 616.97
  A 27.99 27.99 0.0 0 0 635.36 588.98
  Z
  M 530.16 617.63
  Q 538.40 617.86 543.25 617.41
  C 554.38 616.39 563.62 609.72 565.44 598.64
  C 567.58 585.65 565.56 567.64 548.25 567.69
  C 524.29 567.74 500.18 567.03 476.25 567.83
  C 459.48 568.39 458.11 587.26 460.49 599.51
  C 462.95 612.14 473.69 617.42 485.50 617.54
  C 498.77 617.66 514.95 617.22 530.16 617.63
  Z"
/>
<path fill="#ddeef5" d="
  M 414.38 536.49
  Q 413.94 536.70 413.88 536.73
  Q 412.14 537.53 413.02 535.82
  Q 427.96 507.01 443.03 478.06
  C 444.09 476.01 445.22 475.10 447.70 475.12
  C 479.13 475.44 510.58 475.65 542.00 474.91
  Q 560.39 474.47 578.78 475.17
  C 580.95 475.25 582.68 478.96 583.57 480.62
  Q 597.58 506.85 611.33 533.20
  Q 612.17 534.82 612.86 536.52
  A 0.50 0.49 84.7 0 1 612.31 537.19
  C 611.10 536.96 610.12 536.46 608.86 536.51
  C 598.85 536.92 588.76 536.78 578.75 536.79
  Q 501.50 536.90 424.25 536.68
  Q 419.57 536.66 414.91 536.39
  Q 414.62 536.37 414.38 536.49
  Z"
/>
<path fill="#0f2639" d="
  M 241.35 509.11
  C 246.25 499.95 251.09 490.41 256.74 481.72
  A 0.56 0.56 0.0 0 1 257.71 481.78
  Q 264.72 495.70 271.96 509.51
  Q 273.31 512.07 274.71 516.51
  C 281.51 537.95 252.99 550.21 240.73 533.76
  C 234.96 526.03 236.85 517.54 241.35 509.11
  Z"
/>
<path fill="#0f2639" d="
  M 769.72 492.58
  C 774.13 499.76 777.41 507.59 781.19 515.13
  C 783.09 518.92 785.15 523.71 784.68 527.83
  C 782.39 548.05 744.50 543.31 756.76 517.77
  Q 762.86 505.07 769.29 492.60
  A 0.25 0.24 -47.4 0 1 769.72 492.58
  Z"
/>
<path fill="#46afd3" d="
  M 295.93 555.30
  Q 293.88 580.67 303.34 604.15
  C 304.97 608.19 307.29 611.78 309.65 615.50
  Q 310.67 617.11 310.89 617.94
  Q 310.99 618.35 311.30 618.65
  C 311.89 619.22 312.26 620.17 312.72 620.75
  Q 317.72 627.01 322.81 633.19
  Q 329.02 640.75 340.24 648.74
  Q 329.99 652.36 318.55 658.27
  C 308.78 663.32 299.29 658.79 290.81 654.16
  Q 274.70 645.38 258.21 637.33
  Q 252.61 634.59 242.37 631.36
  Q 232.32 625.16 223.75 618.75
  Q 222.84 618.07 222.48 616.24
  Q 244.93 614.72 265.07 624.01
  Q 265.11 624.03 274.13 628.94
  Q 285.55 635.15 298.69 636.60
  Q 302.76 637.05 306.87 637.91
  A 0.44 0.44 0.0 0 0 307.37 637.32
  Q 307.15 636.73 306.56 636.20
  C 289.52 620.88 272.79 607.54 249.03 602.82
  C 238.44 600.72 229.86 600.40 217.87 599.98
  Q 215.23 587.62 213.42 574.99
  Q 213.27 573.94 213.36 572.77
  Q 214.52 572.49 215.00 572.53
  Q 240.82 575.11 265.33 567.78
  Q 270.58 566.21 280.66 561.68
  Q 288.22 558.27 295.93 555.30
  Z"
/>
<path fill="#46afd3" d="
  M 729.39 555.62
  Q 734.77 557.71 745.85 562.90
  C 765.78 572.23 790.74 574.76 812.22 572.29
  L 807.53 600.46
  Q 791.71 599.88 776.76 602.60
  C 753.09 606.91 734.69 618.97 718.52 636.73
  Q 718.02 637.27 717.88 637.68
  A 0.54 0.54 0.0 0 0 718.54 638.38
  C 726.49 636.16 734.64 634.65 742.28 631.65
  Q 744.24 630.88 751.05 627.39
  Q 775.36 614.93 804.11 616.14
  Q 793.18 626.20 780.80 633.50
  Q 773.84 633.75 768.98 635.41
  Q 761.78 637.86 753.40 642.90
  Q 741.46 650.08 729.14 656.61
  C 723.35 659.68 717.40 661.37 712.31 658.73
  Q 700.54 652.65 687.47 648.05
  C 697.81 639.61 705.22 630.37 712.96 619.89
  Q 714.98 617.15 717.67 615.21
  Q 727.92 607.81 738.34 601.15
  A 0.16 0.16 0.0 0 0 738.19 600.86
  C 735.28 601.99 732.32 603.09 729.14 603.10
  Q 726.09 603.10 723.04 602.75
  A 0.81 0.81 0.0 0 1 722.38 601.66
  C 728.23 586.63 730.63 571.93 729.39 555.62
  Z"
/>
<path fill="#0f2639" d="
  M 446.09 588.98
  A 28.05 28.05 0.0 0 1 418.04 617.03
  A 28.05 28.05 0.0 0 1 389.99 588.98
  A 28.05 28.05 0.0 0 1 418.04 560.93
  A 28.05 28.05 0.0 0 1 446.09 588.98
  Z
  M 430.4205 596.7069
  A 14.70 14.38 31.3 0 0 425.3307 576.7829
  A 14.70 14.38 31.3 0 0 405.2995 581.4331
  A 14.70 14.38 31.3 0 0 410.3893 601.3571
  A 14.70 14.38 31.3 0 0 430.4205 596.7069
  Z"
/>
<path fill="#0f2639" d="
  M 635.36 588.98
  A 27.99 27.99 0.0 0 1 607.37 616.97
  A 27.99 27.99 0.0 0 1 579.38 588.98
  A 27.99 27.99 0.0 0 1 607.37 560.99
  A 27.99 27.99 0.0 0 1 635.36 588.98
  Z
  M 619.6473 597.2670
  A 14.74 14.53 33.6 0 0 615.4108 577.0077
  A 14.74 14.53 33.6 0 0 595.0927 580.9530
  A 14.74 14.53 33.6 0 0 599.3292 601.2123
  A 14.74 14.53 33.6 0 0 619.6473 597.2670
  Z"
/>
<path fill="#0f2639" d="
  M 530.16 617.63
  C 514.95 617.22 498.77 617.66 485.50 617.54
  C 473.69 617.42 462.95 612.14 460.49 599.51
  C 458.11 587.26 459.48 568.39 476.25 567.83
  C 500.18 567.03 524.29 567.74 548.25 567.69
  C 565.56 567.64 567.58 585.65 565.44 598.64
  C 563.62 609.72 554.38 616.39 543.25 617.41
  Q 538.40 617.86 530.16 617.63
  Z"
/>
<ellipse fill="#ddeef5" cx="0.00" cy="0.00" transform="translate(417.86,589.07) rotate(31.3)" rx="14.70" ry="14.38"/>
<ellipse fill="#ddeef5" cx="0.00" cy="0.00" transform="translate(607.37,589.11) rotate(33.6)" rx="14.74" ry="14.53"/>
<path fill="#ddeef5" d="
  M 217.87 599.98
  C 229.86 600.40 238.44 600.72 249.03 602.82
  C 272.79 607.54 289.52 620.88 306.56 636.20
  Q 307.15 636.73 307.37 637.32
  A 0.44 0.44 0.0 0 1 306.87 637.91
  Q 302.76 637.05 298.69 636.60
  Q 285.55 635.15 274.13 628.94
  Q 265.11 624.03 265.07 624.01
  Q 244.93 614.72 222.48 616.24
  L 217.87 599.98
  Z"
/>
<path fill="#ddeef5" d="
  M 807.53 600.46
  Q 804.89 608.79 804.11 616.14
  Q 775.36 614.93 751.05 627.39
  Q 744.24 630.88 742.28 631.65
  C 734.64 634.65 726.49 636.16 718.54 638.38
  A 0.54 0.54 0.0 0 1 717.88 637.68
  Q 718.02 637.27 718.52 636.73
  C 734.69 618.97 753.09 606.91 776.76 602.60
  Q 791.71 599.88 807.53 600.46
  Z"
/>
<path fill="#ddeef5" d="
  M 340.24 648.74
  C 364.54 640.97 389.13 642.42 411.77 653.99
  C 425.76 661.13 439.21 669.03 452.97 676.58
  C 467.55 684.58 483.23 690.05 499.98 690.39
  Q 502.58 690.45 517.49 689.15
  Q 532.40 687.86 547.38 689.08
  Q 548.13 689.14 549.88 689.80
  L 573.01 704.52
  Q 576.26 706.59 572.48 705.84
  C 571.85 705.72 570.90 705.07 569.80 705.04
  Q 547.65 704.50 525.50 704.05
  Q 520.99 703.96 511.75 705.23
  C 488.93 708.38 468.07 702.29 447.91 691.33
  Q 431.13 682.21 414.53 672.78
  Q 405.69 667.76 400.38 665.61
  Q 370.80 653.66 340.50 664.77
  Q 326.61 669.86 315.43 678.16
  L 242.37 631.36
  Q 252.61 634.59 258.21 637.33
  Q 274.70 645.38 290.81 654.16
  C 299.29 658.79 308.78 663.32 318.55 658.27
  Q 329.99 652.36 340.24 648.74
  Z"
/>
<path fill="#ddeef5" d="
  M 780.80 633.50
  L 715.53 677.34
  Q 705.99 671.66 696.01 667.20
  C 677.28 658.82 655.27 656.99 635.85 664.15
  C 624.03 668.51 613.41 675.28 603.28 682.71
  A 0.44 0.43 39.9 0 0 603.35 683.45
  L 616.85 690.15
  C 624.65 693.70 637.87 698.44 645.69 693.69
  C 657.73 686.36 668.28 682.15 682.75 684.78
  Q 685.66 685.31 696.65 688.27
  Q 697.55 688.00 697.80 688.69
  A 0.77 0.77 0.0 0 1 697.61 689.52
  C 684.24 702.45 666.79 707.17 648.57 709.70
  Q 638.08 711.17 629.91 710.02
  C 619.62 708.58 609.99 704.82 600.86 699.86
  Q 577.28 687.03 554.36 673.06
  C 532.99 660.04 512.57 653.77 488.58 665.06
  Q 486.67 665.96 484.94 667.47
  L 471.36 660.66
  Q 470.49 660.23 471.24 659.60
  C 491.15 643.11 516.94 639.35 540.71 648.29
  Q 545.15 649.96 556.08 656.25
  Q 572.20 665.53 588.19 675.22
  A 0.98 0.97 42.2 0 0 589.29 675.17
  C 604.51 663.79 620.11 651.99 638.74 646.73
  C 651.28 643.18 665.53 643.19 678.25 645.76
  Q 680.28 646.17 687.47 648.05
  Q 700.54 652.65 712.31 658.73
  C 717.40 661.37 723.35 659.68 729.14 656.61
  Q 741.46 650.08 753.40 642.90
  Q 761.78 637.86 768.98 635.41
  Q 773.84 633.75 780.80 633.50
  Z"
/>
<path fill="#ddeef5" d="
  M 314.11 701.34
  L 373.90 734.63
  Q 374.99 735.24 373.75 735.34
  C 372.02 735.47 369.14 734.10 367.26 733.65
  Q 349.13 729.24 331.13 724.35
  C 325.98 722.96 320.03 720.64 316.00 718.72
  Q 307.81 714.82 290.83 704.82
  Q 286.92 702.51 273.76 694.41
  Q 262.32 687.36 250.27 680.46
  Q 242.95 669.56 238.03 656.98
  Q 237.51 655.64 238.75 656.38
  C 259.93 668.98 278.13 680.54 302.27 694.32
  Q 304.35 695.51 308.17 697.88
  Q 311.25 699.79 314.11 701.34
  Z"
/>
<path fill="#ddeef5" d="
  M 778.02 676.95
  Q 771.33 682.41 760.43 689.66
  C 734.92 706.64 718.38 717.54 700.98 727.48
  C 679.26 739.88 653.85 741.97 629.41 739.92
  C 619.11 739.05 608.70 736.26 598.79 735.41
  Q 571.54 733.10 544.59 738.16
  C 540.95 738.84 537.05 739.22 533.32 739.23
  Q 518.03 739.28 502.75 739.11
  Q 496.84 739.04 485.50 737.09
  Q 459.36 732.59 429.99 735.02
  Q 405.81 737.01 386.48 748.65
  C 373.76 756.31 363.07 767.43 353.16 779.36
  C 352.39 780.29 351.56 782.16 350.29 782.73
  L 336.47 773.26
  C 336.83 772.66 336.96 771.92 337.36 771.38
  C 342.83 763.95 349.28 757.76 355.99 751.49
  Q 381.80 727.34 416.75 721.17
  C 432.07 718.47 447.77 717.94 463.28 718.54
  C 483.29 719.30 502.50 724.42 522.66 723.61
  C 530.65 723.30 540.20 721.84 548.93 720.74
  Q 560.17 719.32 568.66 718.94
  Q 584.92 718.20 594.76 719.04
  Q 607.23 720.11 624.24 723.78
  Q 636.08 726.34 649.50 726.33
  C 664.80 726.33 678.71 722.96 691.92 715.92
  Q 703.65 709.66 717.27 701.45
  L 786.60 657.11
  Q 787.90 656.28 787.23 657.67
  L 778.02 676.95
  Z"
/>
<path fill="#46afd3" d="
  M 549.88 689.80
  Q 550.03 689.69 550.15 689.60
  Q 550.43 689.36 550.14 689.15
  C 539.33 681.03 529.21 674.75 515.91 673.73
  C 504.99 672.89 496.23 672.26 484.94 667.47
  Q 486.67 665.96 488.58 665.06
  C 512.57 653.77 532.99 660.04 554.36 673.06
  Q 577.28 687.03 600.86 699.86
  C 609.99 704.82 619.62 708.58 629.91 710.02
  Q 638.08 711.17 648.57 709.70
  C 666.79 707.17 684.24 702.45 697.61 689.52
  A 0.77 0.77 0.0 0 0 697.80 688.69
  Q 697.55 688.00 696.65 688.27
  Q 697.16 687.48 696.58 687.45
  C 678.53 671.83 653.36 669.48 632.56 680.56
  C 627.72 683.14 621.86 686.62 616.85 690.15
  L 603.35 683.45
  A 0.44 0.43 39.9 0 1 603.28 682.71
  C 613.41 675.28 624.03 668.51 635.85 664.15
  C 655.27 656.99 677.28 658.82 696.01 667.20
  Q 705.99 671.66 715.53 677.34
  L 699.29 688.26
  Q 698.22 688.98 699.30 689.69
  L 717.27 701.45
  Q 703.65 709.66 691.92 715.92
  C 678.71 722.96 664.80 726.33 649.50 726.33
  Q 636.08 726.34 624.24 723.78
  Q 607.23 720.11 594.76 719.04
  Q 584.92 718.20 568.66 718.94
  Q 560.17 719.32 548.93 720.74
  C 540.20 721.84 530.65 723.30 522.66 723.61
  C 502.50 724.42 483.29 719.30 463.28 718.54
  C 447.77 717.94 432.07 718.47 416.75 721.17
  Q 381.80 727.34 355.99 751.49
  C 349.28 757.76 342.83 763.95 337.36 771.38
  C 336.96 771.92 336.83 772.66 336.47 773.26
  Q 335.70 773.15 335.36 772.91
  Q 310.45 755.32 289.48 733.30
  C 283.93 727.48 278.35 720.39 272.89 713.87
  C 271.68 712.43 270.63 710.48 269.56 709.20
  Q 258.72 696.24 250.27 680.46
  Q 262.32 687.36 273.76 694.41
  Q 286.92 702.51 290.83 704.82
  Q 307.81 714.82 316.00 718.72
  C 320.03 720.64 325.98 722.96 331.13 724.35
  Q 349.13 729.24 367.26 733.65
  C 369.14 734.10 372.02 735.47 373.75 735.34
  Q 374.99 735.24 373.90 734.63
  L 314.11 701.34
  Q 322.56 694.60 331.96 689.62
  C 332.92 690.25 334.05 690.67 334.91 691.27
  Q 343.13 696.98 346.48 698.77
  Q 373.21 713.02 403.24 707.48
  C 414.74 705.35 426.83 702.43 438.06 705.64
  A 0.51 0.50 -71.1 0 0 438.67 705.33
  L 438.78 705.06
  Q 438.84 704.88 438.67 704.80
  Q 429.06 700.32 420.44 694.05
  Q 418.90 692.93 415.33 691.53
  Q 414.55 690.08 411.77 688.44
  Q 405.79 684.91 399.74 681.50
  C 378.72 669.66 350.39 670.60 332.39 687.79
  A 1.28 1.27 39.3 0 1 330.82 687.94
  L 315.43 678.16
  Q 326.61 669.86 340.50 664.77
  Q 370.80 653.66 400.38 665.61
  Q 405.69 667.76 414.53 672.78
  Q 431.13 682.21 447.91 691.33
  C 468.07 702.29 488.93 708.38 511.75 705.23
  Q 520.99 703.96 525.50 704.05
  Q 547.65 704.50 569.80 705.04
  C 570.90 705.07 571.85 705.72 572.48 705.84
  Q 576.26 706.59 573.01 704.52
  L 549.88 689.80
  Z"
/>
<path fill="#0f2639" d="
  M 696.65 688.27
  Q 685.66 685.31 682.75 684.78
  C 668.28 682.15 657.73 686.36 645.69 693.69
  C 637.87 698.44 624.65 693.70 616.85 690.15
  C 621.86 686.62 627.72 683.14 632.56 680.56
  C 653.36 669.48 678.53 671.83 696.58 687.45
  Q 697.16 687.48 696.65 688.27
  Z"
/>
<path fill="#46afd3" d="
  M 778.02 676.95
  Q 770.41 690.36 761.87 702.35
  Q 758.07 707.69 753.51 712.39
  C 752.33 713.61 751.76 715.13 750.89 716.24
  Q 729.23 743.82 701.40 765.15
  Q 691.97 772.38 682.36 779.35
  Q 676.49 783.62 661.62 792.15
  Q 630.73 761.19 588.23 757.06
  Q 582.24 756.48 568.25 756.46
  Q 550.12 756.42 532.00 756.30
  C 524.85 756.25 512.99 756.53 503.00 756.27
  C 489.41 755.92 472.88 755.74 459.61 758.19
  Q 448.42 760.25 438.18 764.16
  Q 407.38 775.91 388.07 803.32
  Q 372.33 795.76 365.50 792.00
  Q 362.19 790.18 350.29 782.73
  C 351.56 782.16 352.39 780.29 353.16 779.36
  C 363.07 767.43 373.76 756.31 386.48 748.65
  Q 405.81 737.01 429.99 735.02
  Q 459.36 732.59 485.50 737.09
  Q 496.84 739.04 502.75 739.11
  Q 518.03 739.28 533.32 739.23
  C 537.05 739.22 540.95 738.84 544.59 738.16
  Q 571.54 733.10 598.79 735.41
  C 608.70 736.26 619.11 739.05 629.41 739.92
  C 653.85 741.97 679.26 739.88 700.98 727.48
  C 718.38 717.54 734.92 706.64 760.43 689.66
  Q 771.33 682.41 778.02 676.95
  Z"
/>
<path fill="#ddeef5" d="
  M 415.33 691.53
  Q 418.90 692.93 420.44 694.05
  Q 429.06 700.32 438.67 704.80
  Q 438.84 704.88 438.78 705.06
  L 438.67 705.33
  A 0.51 0.50 -71.1 0 1 438.06 705.64
  C 426.83 702.43 414.74 705.35 403.24 707.48
  Q 373.21 713.02 346.48 698.77
  Q 343.13 696.98 334.91 691.27
  C 334.05 690.67 332.92 690.25 331.96 689.62
  C 346.63 682.72 362.52 681.71 377.24 689.08
  Q 381.40 691.16 385.40 693.59
  C 394.23 698.96 406.48 693.71 415.33 691.53
  Z"
/>
<circle fill="#0f2639" cx="183.67" cy="724.12" r="8.32"/>
<circle fill="#0f2639" cx="840.32" cy="724.18" r="8.32"/>
<path fill="#ddeef5" d="
  M 661.62 792.15
  L 645.61 800.67
  Q 645.16 800.91 644.82 800.52
  C 630.68 784.15 608.22 774.00 587.25 772.58
  Q 582.96 772.28 568.99 772.32
  Q 531.13 772.43 493.26 772.45
  Q 475.20 772.46 473.26 772.57
  C 446.70 774.17 422.02 786.13 406.66 808.16
  Q 405.76 809.46 405.43 810.51
  A 0.98 0.98 0.0 0 1 404.07 811.10
  L 388.07 803.32
  Q 407.38 775.91 438.18 764.16
  Q 448.42 760.25 459.61 758.19
  C 472.88 755.74 489.41 755.92 503.00 756.27
  C 512.99 756.53 524.85 756.25 532.00 756.30
  Q 550.12 756.42 568.25 756.46
  Q 582.24 756.48 588.23 757.06
  Q 630.73 761.19 661.62 792.15
  Z"
/>
<path fill="#46afd3" d="
  M 586.87 822.67
  C 584.86 820.87 582.93 818.73 580.94 817.27
  C 573.99 812.18 566.24 811.12 558.75 811.06
  Q 541.86 810.90 494.75 811.19
  C 480.33 811.27 469.71 814.82 460.77 827.01
  Q 448.79 824.16 436.78 820.70
  C 434.20 819.95 432.12 819.52 429.76 818.05
  A 0.53 0.53 0.0 0 1 429.89 817.09
  Q 430.79 816.82 431.61 815.86
  C 435.42 811.36 439.51 806.87 444.36 803.69
  Q 459.68 793.63 478.50 793.59
  Q 498.75 793.54 519.00 793.55
  Q 548.88 793.55 578.75 793.84
  Q 601.33 794.06 617.72 809.28
  Q 618.83 810.32 619.95 810.71
  Q 620.90 811.05 619.96 811.42
  Q 603.89 817.75 586.87 822.67
  Z"
/>
<ellipse fill="#0f2639" cx="0.00" cy="0.00" transform="translate(756.43,816.56) rotate(99.6)" rx="11.47" ry="11.20"/>
<ellipse fill="#0f2639" cx="0.00" cy="0.00" transform="translate(268.48,816.72) rotate(99.0)" rx="11.44" ry="11.24"/>
<path fill="#ddeef5" d="
  M 586.87 822.67
  Q 575.53 826.28 566.75 827.74
  C 564.91 828.05 562.27 827.50 560.40 827.51
  Q 530.95 827.77 501.50 827.55
  C 497.07 827.52 490.15 826.67 487.34 830.91
  A 1.24 1.22 21.4 0 1 486.10 831.44
  L 460.77 827.01
  C 469.71 814.82 480.33 811.27 494.75 811.19
  Q 541.86 810.90 558.75 811.06
  C 566.24 811.12 573.99 812.18 580.94 817.27
  C 582.93 818.73 584.86 820.87 586.87 822.67
  Z"
/>
<circle fill="#0f2639" cx="512.72" cy="925.22" r="10.25"/>
</svg>
